<svg xmlns="http://www.w3.org/2000/svg" viewBox="0 0 100 100.2"><defs><style>.cls-1{fill:#e44d26;}.cls-2{fill:#f16529;}.cls-3{fill:#ebebeb;}.cls-4{fill:#fff;}.cls-5{fill:#1572b6;}.cls-6{fill:#33a9dc;}</style></defs><g id="HTML"><path class="cls-1" d="M4.55,51,0,0H50L45.44,51,25,56.7Z"/><path class="cls-2" d="M25,52.37l16.55-4.59L45.44,4.17H25Z"/><path class="cls-3" d="M25,23.1H16.72l-.58-6.41H25V10.43H9.3l.15,1.68L11,29.36H25Zm0,16.26h0l-7-1.89-.44-5H11.27l.88,9.83L25,45.88h0Z"/><path class="cls-4" d="M25,23.1v6.26h7.71L32,37.48l-7,1.88v6.52l12.83-3.56.09-1.06,1.48-16.48.15-1.68H25Zm0-12.67v6.26H40.1l.12-1.4.29-3.18.15-1.68Z"/></g><g id="CSS"><path class="cls-5" d="M54.55,94.53,50,43.5h50l-4.55,51L75,100.2Z"/><path class="cls-6" d="M75,95.86l16.55-4.58,3.89-43.61H75Z"/><path class="cls-4" d="M75,66.16h8.28l.58-6.41H75V53.49H90.7l-.15,1.68L89,72.42H75Z"/><path class="cls-3" d="M75,82.42h0l-7-1.88-.45-5H61.31l.88,9.83L75,88.94h0Z"/><path class="cls-4" d="M82.75,72.15,82,80.54l-7,1.88v6.51l12.83-3.55.09-1.06L89,72.15Z"/><path class="cls-3" d="M75,53.49v6.26H59.9l-.12-1.41-.29-3.17-.15-1.68Zm0,12.67v6.26H68.12L68,71l-.28-3.17-.15-1.68Z"/></g></svg>