<?xml version="1.0" encoding="utf-8"?>
<!-- Generator: Adobe Illustrator 26.0.3, SVG Export Plug-In . SVG Version: 6.00 Build 0)  -->
<svg version="1.1" id="レイヤー_1" xmlns="http://www.w3.org/2000/svg" xmlns:xlink="http://www.w3.org/1999/xlink" x="0px"
	 y="0px" viewBox="0 0 100 100" style="enable-background:new 0 0 100 100;" xml:space="preserve">
<style type="text/css">
	.st0{fill:#330404;}
	.st1{enable-background:new    ;}
	.st2{fill:#F3941A;}
</style>
<g id="レイヤー_1_00000124853149765635345460000009431397349009714308_">
	<path class="st0" d="M10,0h80c5.5,0,10,4.5,10,10v80c0,5.5-4.5,10-10,10H10c-5.5,0-10-4.5-10-10V10C0,4.5,4.5,0,10,0z"/>
</g>
<g id="レイヤー_2_00000169560386594795733200000010991107773398176418_">
	<g class="st1">
		<path class="st2" d="M62.3,70.9H52l-3-9.3H34.1l-3,9.3H20.9l15.3-42h11.2L62.3,70.9z M46.9,54.3l-4.5-14.1
			c-0.3-1.1-0.6-2.3-0.7-3.8h-0.2c-0.1,1.2-0.3,2.5-0.7,3.7l-4.6,14.2H46.9z"/>
		<path class="st2" d="M69.6,36.2c-1.6,0-2.8-0.5-3.8-1.4c-1-0.9-1.5-2.1-1.5-3.4c0-1.4,0.5-2.5,1.5-3.4s2.3-1.3,3.8-1.3
			c1.6,0,2.9,0.4,3.9,1.3s1.5,2,1.5,3.4c0,1.4-0.5,2.6-1.5,3.5C72.4,35.7,71.1,36.2,69.6,36.2z M74.1,70.9h-9.3v-30h9.3V70.9z"/>
	</g>
</g>
</svg>
