<?xml version="1.0" encoding="utf-8"?>
<!-- Generator: Adobe Illustrator 26.0.3, SVG Export Plug-In . SVG Version: 6.00 Build 0)  -->
<svg version="1.1" id="レイヤー_1" xmlns="http://www.w3.org/2000/svg" xmlns:xlink="http://www.w3.org/1999/xlink" x="0px"
	 y="0px" viewBox="0 0 100 100" style="enable-background:new 0 0 100 100;" xml:space="preserve">
<style type="text/css">
	.st0{fill:#041D35;}
	.st1{enable-background:new    ;}
	.st2{fill:#419ED7;}
</style>
<g id="レイヤー_1_00000034088929698084270080000006150347289151579825_">
	<path class="st0" d="M10,0h80c5.5,0,10,4.5,10,10v80c0,5.5-4.5,10-10,10H10c-5.5,0-10-4.5-10-10V10C0,4.5,4.5,0,10,0z"/>
</g>
<g id="レイヤー_2_00000155147224795380556360000016553969086994998940_">
	<g class="st1">
		<path class="st2" d="M33.9,56.4v14.5h-9.5v-42h14.8c10.6,0,15.9,4.5,15.9,13.4c0,4.2-1.5,7.6-4.6,10.2s-7.1,3.9-12.2,3.9H33.9z
			 M33.9,36.2v13.1h3.7c5,0,7.6-2.2,7.6-6.6c0-4.3-2.5-6.5-7.6-6.5H33.9z"/>
		<path class="st2" d="M56.6,70.1v-7.5c1.5,0.9,3,1.6,4.6,2.1s2.9,0.7,4.3,0.7c1.6,0,2.9-0.2,3.9-0.7s1.4-1.1,1.4-2.1
			c0-0.6-0.2-1.1-0.6-1.5s-1-0.7-1.7-1s-1.4-0.6-2.2-0.8s-1.6-0.5-2.3-0.8c-1.2-0.4-2.2-0.9-3.1-1.5s-1.7-1.1-2.3-1.8
			s-1.1-1.5-1.4-2.4s-0.5-2-0.5-3.2c0-1.7,0.4-3.1,1.1-4.3s1.7-2.2,2.9-3s2.6-1.3,4.2-1.7s3.2-0.5,4.9-0.5c1.3,0,2.7,0.1,4,0.3
			s2.7,0.5,4,0.9v7.1c-1.2-0.7-2.4-1.2-3.8-1.5s-2.7-0.5-3.9-0.5c-0.6,0-1.2,0.1-1.7,0.2s-1,0.3-1.4,0.5s-0.7,0.5-1,0.8
			s-0.4,0.7-0.4,1.1c0,0.5,0.2,1,0.5,1.4s0.8,0.7,1.4,1s1.2,0.5,1.9,0.8s1.4,0.5,2.1,0.7c1.2,0.4,2.3,0.9,3.3,1.4s1.9,1.1,2.6,1.8
			s1.3,1.5,1.6,2.4s0.6,2,0.6,3.3c0,1.8-0.4,3.3-1.2,4.6s-1.8,2.3-3.1,3.1s-2.8,1.4-4.4,1.7s-3.4,0.5-5.2,0.5
			C62.4,71.7,59.4,71.1,56.6,70.1z"/>
	</g>
</g>
</svg>
