<?xml version="1.0" encoding="utf-8"?>
<!-- Generator: Adobe Illustrator 26.0.3, SVG Export Plug-In . SVG Version: 6.00 Build 0)  -->
<svg version="1.1" id="レイヤー_1" xmlns="http://www.w3.org/2000/svg" xmlns:xlink="http://www.w3.org/1999/xlink" x="0px"
	 y="0px" viewBox="0 0 100 100" style="enable-background:new 0 0 100 100;" xml:space="preserve">
<style type="text/css">
	.st0{fill:#431336;}
	.st1{enable-background:new    ;}
	.st2{fill:#BC72AF;}
</style>
<g id="レイヤー_1_00000081624885881736749440000000003726083228490889_">
	<path class="st0" d="M10,0h80c5.5,0,10,4.5,10,10v80c0,5.5-4.5,10-10,10H10c-5.5,0-10-4.5-10-10V10C0,4.5,4.5,0,10,0z"/>
</g>
<g id="レイヤー_2_00000164489703035115815930000000159516694401311935_">
	<g class="st1">
		<path class="st2" d="M52.9,70.9H41.7l-7.2-13.7c-0.3-0.5-0.6-1.4-0.8-2.8h-0.1c-0.1,0.6-0.5,1.6-1,2.9l-7.3,13.6H13.9l13.4-21
			l-12.2-21h11.5l6,12.6c0.5,1,0.9,2.2,1.3,3.5H34c0.2-0.8,0.7-2,1.3-3.7L42,28.9h10.5L39.9,49.7L52.9,70.9z"/>
		<path class="st2" d="M83.3,70.9h-9.3v-4.1H74c-2.1,3.2-5.2,4.9-9.3,4.9c-3.8,0-6.8-1.3-9.1-4s-3.4-6.3-3.4-11.1
			c0-5,1.3-8.9,3.8-11.9s5.8-4.5,9.9-4.5c3.9,0,6.6,1.4,8.1,4.2h0.1V26.5h9.3V70.9z M74.3,56.3v-2.3c0-2-0.6-3.6-1.7-4.9
			s-2.6-1.9-4.4-1.9c-2.1,0-3.7,0.8-4.8,2.4s-1.7,3.8-1.7,6.6c0,2.6,0.6,4.7,1.7,6.1s2.7,2.1,4.6,2.1c1.9,0,3.4-0.8,4.6-2.3
			S74.3,58.8,74.3,56.3z"/>
	</g>
</g>
</svg>
