<?xml version="1.0" encoding="utf-8"?>
<!-- Generator: Adobe Illustrator 26.0.3, SVG Export Plug-In . SVG Version: 6.00 Build 0)  -->
<svg version="1.1" id="レイヤー_1" xmlns="http://www.w3.org/2000/svg" xmlns:xlink="http://www.w3.org/1999/xlink" x="0px"
	 y="0px" viewBox="0 0 343.1 275" style="enable-background:new 0 0 343.1 275;" xml:space="preserve">
<style type="text/css">
	.st0{fill:#FBF5C3;}
	.st1{fill:#6F1419;}
	.st2{fill:#231815;}
	.st3{font-family:'VDL-ADMin-Regular-90ms-RKSJ-H';}
	.st4{font-size:12px;}
	.st5{letter-spacing:1;}
	.st6{font-family:'DicoSlab-Bold';}
	.st7{font-size:6px;}
	.st8{font-family:'KozGoPr6N-Medium-90ms-RKSJ-H';}
	.st9{font-family:'ArialMT';}
	.st10{letter-spacing:2;}
	.st11{fill:none;stroke:#6F1419;stroke-width:2;stroke-miterlimit:10;}
	.st12{fill:#FFFFFF;}
	.st13{fill:#65B34E;}
	.st14{fill:#379339;}
	.st15{clip-path:url(#SVGID_00000035507192088658809150000012592948134016859271_);}
	.st16{fill:#6C1319;}
	.st17{fill:none;stroke:#EFEAAE;stroke-width:0.5;stroke-miterlimit:10;}
	.st18{clip-path:url(#SVGID_00000072243763783833717070000003203548153395646133_);}
	.st19{fill:none;stroke:#FBF5C3;stroke-miterlimit:10;}
	.st20{fill:#64B24D;}
</style>
<g id="レイヤー_1_00000167365269180916750820000012333261272823346581_">
	<rect x="8.5" y="8.5" class="st0" width="144.6" height="258"/>
	<path class="st1" d="M0,0v275h161.6V0H0z M148.8,262.2H12.8V12.8h136.1V262.2z"/>
	<text transform="matrix(1 0 0 1 51.49 151.05)" class="st2 st3 st4 st5">小泉 剛也</text>
	<text transform="matrix(1 0 0 1 51.49 157.99)" class="st2 st6 st7">Koizumi Takeya</text>
	<text transform="matrix(1 0 0 1 27.66 208.17)" class="st2 st8 st7">〒331</text>
	<text transform="matrix(1 0 0 1 43.78 207.67)" class="st2 st8 st7">-</text>
	<text transform="matrix(1 0 0 1 46.43 208.17)" class="st2 st8 st7">0825</text>
	<text transform="matrix(1 0 0 1 28.26 215.17)" class="st2 st8 st7">埼玉県さいたま市北区櫛引</text>
	<text transform="matrix(1 0 0 1 100.26 215.17)" class="st2 st8 st7 st5">町</text>
	<text transform="matrix(1 0 0 1 107.76 215.17)" class="st2 st8 st7">X</text>
	<text transform="matrix(1 0 0 1 111.43 214.67)" class="st2 st8 st7">-</text>
	<text transform="matrix(1 0 0 1 113.49 215.17)" class="st2 st8 st7">XXX</text>
	<text transform="matrix(1 0 0 1 124.51 214.67)" class="st2 st8 st7">-</text>
	<text transform="matrix(1 0 0 1 126.56 215.17)" class="st2 st8 st7">XX</text>
	<text transform="matrix(1 0 0 1 27.96 229.19)" class="st2 st9 st7">Te</text>
	<text transform="matrix(1 0 0 1 34.96 229.19)" class="st2 st9 st7 st10">l</text>
	<text transform="matrix(1 0 0 1 38.69 229.19)" class="st2 st9 st7">: 090</text>
	<text transform="matrix(1 0 0 1 52.04 228.69)" class="st2 st9 st7">-</text>
	<text transform="matrix(1 0 0 1 54.04 229.19)" class="st2 st9 st7">61XX</text>
	<text transform="matrix(1 0 0 1 68.72 228.69)" class="st2 st9 st7">-</text>
	<text transform="matrix(1 0 0 1 70.71 229.19)" class="st2 st9 st7">69XX</text>
	<text transform="matrix(1 0 0 1 27.66 236.19)" class="st2 st9 st7">Mail: koizumi.XXX@gmail.com</text>
	<text transform="matrix(1 0 0 1 62.9 133.05)" class="st2 st9 st7">web designer</text>
	<rect x="15.6" y="15.6" class="st11" width="130.4" height="243.8"/>
	<path class="st12" d="M80.8,114.1C59.9,114.1,43,97.2,43,76.3c0-20.9,16.9-37.8,37.8-37.8s37.8,16.9,37.8,37.8
		C118.6,97.2,101.6,114.1,80.8,114.1z"/>
	<ellipse class="st13" cx="68.8" cy="86.8" rx="4.3" ry="14.8"/>
	<ellipse class="st13" cx="68.8" cy="66.8" rx="4.3" ry="14.8"/>
	<ellipse class="st13" cx="92.8" cy="86.8" rx="4.3" ry="14.8"/>
	<ellipse class="st13" cx="92.8" cy="66.8" rx="4.3" ry="14.8"/>
	<path class="st14" d="M106.8,70c2.7-2.8,4.6-6.1,5.8-9.8c-7.5,2.2-13.4,8-15.6,15.6C100.7,74.7,104,72.7,106.8,70z"/>
	<path class="st14" d="M106.8,83.6c-2.8-2.7-6.1-4.6-9.8-5.8c2.2,7.5,8,13.4,15.6,15.6C111.4,89.7,109.4,86.3,106.8,83.6z"/>
	<path class="st14" d="M80.2,60.3c2.7-0.1,5.3-1,7.5-2.6c-2.2-1.6-4.8-2.5-7.5-2.6c-2.7,0.1-5.3,1-7.5,2.6
		C74.9,59.4,77.5,60.2,80.2,60.3z"/>
	<path class="st14" d="M57.2,60.2c2.7-0.1,5.3-1,7.5-2.6c-2.2-1.6-4.8-2.5-7.5-2.6c-2.7,0.1-5.3,1-7.5,2.6
		C51.9,59.3,54.5,60.1,57.2,60.2z"/>
	<g>
		<defs>
			<path id="SVGID_1_" d="M80.8,114.1C59.9,114.1,43,97.2,43,76.3c0-20.9,16.9-37.8,37.8-37.8s37.8,16.9,37.8,37.8
				C118.6,97.2,101.6,114.1,80.8,114.1z"/>
		</defs>
		<clipPath id="SVGID_00000005988841039597408760000000723904269764823972_">
			<use xlink:href="#SVGID_1_"  style="overflow:visible;"/>
		</clipPath>
		<g style="clip-path:url(#SVGID_00000005988841039597408760000000723904269764823972_);">
			<ellipse class="st13" cx="68.8" cy="46.8" rx="4.3" ry="14.8"/>
			<ellipse class="st13" cx="92.8" cy="46.8" rx="4.3" ry="14.8"/>
			<ellipse class="st13" cx="92.8" cy="106.8" rx="4.3" ry="14.8"/>
			<ellipse class="st13" cx="68.8" cy="106.8" rx="4.3" ry="14.8"/>
		</g>
	</g>
	<path class="st16" d="M80.8,114.1C59.9,114.1,43,97.2,43,76.3c0-20.9,16.9-37.8,37.8-37.8s37.8,16.9,37.8,37.8
		C118.6,97.2,101.6,114.1,80.8,114.1z M80.8,39.5C60.5,39.5,44,56,44,76.3s16.5,36.8,36.8,36.8s36.8-16.5,36.8-36.8c0,0,0,0,0,0
		C117.6,56,101.1,39.5,80.8,39.5z"/>
</g>
<g id="レイヤー_2_00000039131744926183626210000016362734995301526424_">
	<rect x="181.6" class="st1" width="161.6" height="275"/>
	<path class="st17" d="M335.4,4"/>
	<path class="st17" d="M173.8,279"/>
	<path class="st17" d="M283.2,100.8"/>
	<path class="st17" d="M181.6,0"/>
	<path class="st17" d="M343.1,276.5"/>
	<path class="st12" d="M262.4,158.6c-11.7,0-21.2-9.4-21.2-21.1c0-11.7,9.4-21.2,21.1-21.2s21.2,9.4,21.2,21.1c0,0,0,0,0,0.1
		C283.5,149.2,274,158.6,262.4,158.6z"/>
	<path class="st17" d="M283.4,174.9"/>
	<path class="st13" d="M257.6,148.4h-3.9c0.5-3.3,0.5-6.8,0-10.1h3.9C257,141.7,257,145.1,257.6,148.4z"/>
	<path class="st13" d="M257.6,137.2h-3.9c0.5-3.3,0.5-6.8,0-10.1h3.9C257,130.5,257,133.9,257.6,137.2z"/>
	<ellipse class="st13" cx="269.1" cy="143.4" rx="2.4" ry="8.3"/>
	<ellipse class="st13" cx="269.1" cy="132.2" rx="2.4" ry="8.3"/>
	<path class="st14" d="M276.9,134c1.5-1.5,2.6-3.4,3.2-5.5c-2.1,0.6-3.9,1.7-5.5,3.2c-1.5,1.5-2.6,3.4-3.2,5.5
		C273.5,136.6,275.4,135.5,276.9,134z"/>
	<path class="st14" d="M276.9,141.5c-1.5-1.5-3.4-2.6-5.5-3.2c0.6,2.1,1.7,3.9,3.2,5.5c1.5,1.5,3.4,2.6,5.5,3.2
		C279.5,144.9,278.4,143,276.9,141.5z"/>
	<path class="st14" d="M262,128.6c1.5-0.1,3-0.6,4.2-1.4c-2.5-1.9-5.9-1.9-8.4,0C259.1,128,260.5,128.5,262,128.6z"/>
	<path class="st14" d="M249.1,128.5c1.5-0.1,3-0.6,4.2-1.4c-2.5-1.9-5.9-1.9-8.4,0C246.2,127.9,247.6,128.4,249.1,128.5z"/>
	<g>
		<defs>
			<path id="SVGID_00000063608430089919113650000008802368325235179694_" d="M262.4,158.6c-11.7,0-21.2-9.4-21.2-21.1
				c0-11.7,9.4-21.2,21.1-21.2s21.2,9.4,21.2,21.1c0,0,0,0,0,0.1C283.5,149.2,274,158.6,262.4,158.6z"/>
		</defs>
		<clipPath id="SVGID_00000090287618029528537270000008246801829884193935_">
			<use xlink:href="#SVGID_00000063608430089919113650000008802368325235179694_"  style="overflow:visible;"/>
		</clipPath>
		<g style="clip-path:url(#SVGID_00000090287618029528537270000008246801829884193935_);">
			<path class="st13" d="M257.6,126h-3.9c0.5-3.3,0.5-6.8,0-10.1h3.9C257,119.3,257,122.7,257.6,126z"/>
			<ellipse class="st13" cx="269.1" cy="121" rx="2.4" ry="8.3"/>
			<ellipse class="st13" cx="269.1" cy="154.6" rx="2.4" ry="8.3"/>
			<path class="st13" d="M257.6,159.6h-3.9c0.5-3.3,0.5-6.8,0-10.1h3.9C257,152.9,257,156.3,257.6,159.6z"/>
		</g>
	</g>
	<rect x="195.8" y="14.2" class="st19" width="133.2" height="246.6"/>
	<ellipse class="st20" cx="132" cy="116.3" rx="4.3" ry="14.8"/>
	<path class="st13" d="M153.5,109.9h-3.9c0.5-3.3,0.5-6.8,0-10.1h3.9C153,103.2,153,106.6,153.5,109.9z"/>
</g>
</svg>
