<svg xmlns="http://www.w3.org/2000/svg" viewBox="0 0 51.98 58.45"><defs><style>.cls-1{fill:#1a30ac;}.cls-2{fill:#fff;}.cls-3{fill:none;stroke:#fff;stroke-miterlimit:10;stroke-width:2px;}</style></defs><g id="レイヤー_1" data-name="レイヤー 1"><path class="cls-1" d="M53.9,13.54l-21-12.1a5,5,0,0,0-5,0l-21,12.12A5,5,0,0,0,4.45,17.9V42.13A5,5,0,0,0,7,46.46l21,12.1a5,5,0,0,0,5,0l21-12.12a5,5,0,0,0,2.49-4.33V17.87A5,5,0,0,0,53.9,13.54Z" transform="translate(-4.45 -0.77)"/></g><g id="レイヤー_2" data-name="レイヤー 2"><circle class="cls-2" cx="27.68" cy="15.73" r="2.5"/><circle class="cls-2" cx="27.68" cy="43.26" r="2.5"/><circle class="cls-2" cx="5.54" cy="15.69" r="2.5"/><circle class="cls-2" cx="27.83" cy="29.62" r="2.5"/><circle class="cls-2" cx="45.87" cy="15.69" r="2.5"/><circle class="cls-2" cx="45.23" cy="43.26" r="2.5"/><circle class="cls-2" cx="16.03" cy="15.73" r="2.5"/><circle class="cls-2" cx="16.03" cy="43.76" r="2.5"/></g><g id="レイヤー_3" data-name="レイヤー 3"><line class="cls-3" x1="5.28" y1="15.75" x2="27.68" y2="15.75"/><line class="cls-3" x1="16.03" y1="15.71" x2="16.03" y2="43.76"/><line class="cls-3" x1="27.68" y1="15.75" x2="27.68" y2="43.76"/><line class="cls-3" x1="45.87" y1="15.75" x2="27.68" y2="29.74"/><line class="cls-3" x1="45.87" y1="43.76" x2="27.68" y2="29.51"/></g></svg>