<svg id="コンポーネント_4_1" data-name="コンポーネント 4 – 1" xmlns="http://www.w3.org/2000/svg" width="355.456" height="46.538" viewBox="0 0 355.456 46.538">
  <path id="パス_3" data-name="パス 3" d="M33.77,6.768a9.429,9.429,0,0,1-3.5-1.008q-1.624-.837-3.3-1.589A53.835,53.835,0,0,0,23.96-1.248a26.885,26.885,0,0,1-2.7-5.623l-.479.82.752.752v.923q-.376.479-.752,1.025A29.081,29.081,0,0,0,18.1-1.675a10.355,10.355,0,0,1-2.82,1.4q-1.025.718-1.846,1.3l-.479.649-.479.068-.547-.171A20.84,20.84,0,0,0,8.374,3.555,14.2,14.2,0,0,1,4.751,5.366l-1.88-1.2L1.2,2.871A6.044,6.044,0,0,1,0,.649l.342-.1a25.946,25.946,0,0,0,2.632.923L3.9.82l.854-4.443q-.376-1.675-.667-3.3A7.23,7.23,0,0,0,2.769-9.946l-1.025-1.2q1.982.444,3.657.872A10,10,0,0,1,8.579-8.818l.547,4a1.647,1.647,0,0,0-.479,1.367l.1.479L8.647-1.4l.581.1A2.587,2.587,0,0,0,9.5-3.145a51.537,51.537,0,0,0,0-11.245H9.023a10.457,10.457,0,0,0-2.427,1.2,4.759,4.759,0,0,1-1.743.479,8.824,8.824,0,0,1-2.8-1.777A8.916,8.916,0,0,1,.068-17.261a4.385,4.385,0,0,0,3.076.923q3.76-1.128,7.537-2.051a56.586,56.586,0,0,0,7.332-2.324v-.376l-.854-1.743-.547-.1q-2.256.479-4.443.974A17.415,17.415,0,0,0,8-20.439a3.864,3.864,0,0,1-2.119-1.025,8.023,8.023,0,0,1-2.734-3.418l.479-.205a3.731,3.731,0,0,0,1.948.752,23.518,23.518,0,0,0,4.255-1.111,32.4,32.4,0,0,1,4.153-1.213l2.324.854.1-.854-.479-1.675-1.948-.718.376-1.23a11.728,11.728,0,0,1,3.179-.991,12.8,12.8,0,0,1,2.7.991,20.525,20.525,0,0,1,2.529,1.5l.444.444.957.1a11.1,11.1,0,0,1,3.247-.649,12.493,12.493,0,0,1,3.657.923l.273.376a5.5,5.5,0,0,1,1.777.752,2.606,2.606,0,0,1,.82,1.675l-.342,1.47h-.684l-.82.205a10.95,10.95,0,0,1-2.478-.837,12.337,12.337,0,0,1-2.273-1.418l-.376-.444q-1.777-.854-3.555-1.846l-.547.718q-.308,1.88-.752,3.623l.171.923.649.1a7.157,7.157,0,0,1,2.153-.923q1.88.923,3.743,1.812t3.743,1.812a6.162,6.162,0,0,1,.82,1.846l-.479.854a9.9,9.9,0,0,1-2.119.649l-.854-.1-.171.376a18.86,18.86,0,0,1,2.188,4.495,38.372,38.372,0,0,0,1.914,4.7l.376.273a9.64,9.64,0,0,0,.137,2.6q.239,1.2.513,2.427l-.1.342a2.34,2.34,0,0,1,.376,1.3q-.068,1.846-.1,3.726l1.025,1.5a.943.943,0,0,0-.273.923l-.752.444-.376.376-.547-.1ZM29.292-2.7a4.874,4.874,0,0,0,.752-2.222L30.42-5.2a8.027,8.027,0,0,0,.547-1.777l.1-1.3a18.739,18.739,0,0,0-.752-4.6,15.3,15.3,0,0,0-1.948-4.119l-1.88-.649-2.153.171-.649-.1-.649.376-.1.581.273.82-.068.752a44.176,44.176,0,0,0,1.76,6.46,14.331,14.331,0,0,0,3.743,5.605ZM17.056-5.571l1.5-.752a11.353,11.353,0,0,0,1.5-2.6l-.376-.171q-1.333.273-2.546.649a9.1,9.1,0,0,0-2.307,1.094A3.956,3.956,0,0,0,14.253-5.2l.308.649Zm-2.6-5.845,2.324-1.025q1.572.376,3.076.752v-.376q-.444-2.222-1.025-4.478l-.376-.068a15.006,15.006,0,0,1-2.41.547,15.989,15.989,0,0,0-2.444.547l.581,1.025-.308,1.5a3.208,3.208,0,0,1,.205,1.641ZM39.852,5.093a7.939,7.939,0,0,1-2.974-2.051,2.035,2.035,0,0,1-.376-1.5,20.2,20.2,0,0,0,.854-3.11l.342-.1,1.025,1.06A16.1,16.1,0,0,0,40.467-5.3q.513-2.5.786-5.024-.171-1.777-.171-3.623a9.786,9.786,0,0,0-.581-3.418,1.956,1.956,0,0,1-1.094-1.23q1.675.273,2.974.564t2.6.667l4.546-1.5a5.049,5.049,0,0,1-1.47-1.333l-.581-.752-1.094.479h-.752a8.872,8.872,0,0,1-2.615-1.179q-1.213-.8-2.41-1.555l-.205-1.23.205-.479h.376a4.671,4.671,0,0,0,2.222,1.06l2.905-.854.068-.376a7.612,7.612,0,0,0-1.2-2.529l-.752-.854h.923a14.7,14.7,0,0,1,4.2.923l.752.479.273,1.025.376.1q1.3-.376,2.649-.7a15.152,15.152,0,0,0,2.649-.906,2.019,2.019,0,0,0,.171-1.23l-.273-.923-1.094-.581,1.47-.171a8.26,8.26,0,0,1,3.35.854l.376-.1q1.88.752,3.743,1.5A27.141,27.141,0,0,1,67.4-26.421a3.221,3.221,0,0,0,.479,1.333l-.854.923a2.454,2.454,0,0,1-1.675.376,19.254,19.254,0,0,1-3.418-.649l-.581.205-2.324.273a14.53,14.53,0,0,1-1.2,3.008h.649l.376-.205.547-.752,1.675-.376a15.947,15.947,0,0,1,2.7.991,11.192,11.192,0,0,0,2.8.889,17.913,17.913,0,0,1-2.905-2.8q1.777.171,3.452.461A9.772,9.772,0,0,1,70.306-21.6a2.717,2.717,0,0,1,.444,1.572,9.662,9.662,0,0,1-2.7.376,4.01,4.01,0,0,1,.957,1.812,7.014,7.014,0,0,1-2.427.854l-2.427-.752-.376.068a5.445,5.445,0,0,0-2.051-.171q-1.675.273-3.247.649a28.317,28.317,0,0,0,1.145,4.187q.7,1.931,1.35,3.811a11.288,11.288,0,0,0,.8-2.683q.222-1.35.5-2.683H61.83l.273-.479-.376-.649.547-.1a9.22,9.22,0,0,1,3.281,1.23l.273.957,1.4,1.025.376.649a4.121,4.121,0,0,1,1.4,1.709,16.289,16.289,0,0,1,1.282,3.435,15.519,15.519,0,0,1,.461,3.811l-.068.444.171.581A26.565,26.565,0,0,0,70.2,2.085a2.551,2.551,0,0,1,.752,1.88l-.273.479L68.7,4.717a16.3,16.3,0,0,0-2.734-.872A4.26,4.26,0,0,1,63.5,2.188L61.83.41a18.8,18.8,0,0,0-.923,2.256l-.376.1-1.3-.752A8.383,8.383,0,0,1,57.626-1.47l.205-.684h.376a1.2,1.2,0,0,0,1.025.308l.547-1.23-1.5-3.486-.649,1.128-.376.273-.547.854L55.2-3.281l-.171.376L53.9-2.6,53.627-.342A13.138,13.138,0,0,1,58,.957l.376.957q-.923.273-1.846.479H55.78l-2.256-.376a13.536,13.536,0,0,0-4.17,1.2l-1.025-.171-.171.923-.479.205a7.107,7.107,0,0,0-1.572-.752l-1.025-1.5H44.6l.649-.752.205-1.777-.479-5.093Q44.125-2.8,43.065-.068a22.411,22.411,0,0,1-2.837,5.161ZM50.653.308l.1-.752-.205-.923-.82.171L48.6-1.777a1.247,1.247,0,0,0-.171.957l.376,1.5.718.1ZM67.025-.718a7.054,7.054,0,0,0,.615-2.649q.034-1.316.034-2.717L67.5-7.041l.1-.923a13.8,13.8,0,0,0-1.025-3.589,1.956,1.956,0,0,0-1.23-.923A14.337,14.337,0,0,0,63.966-8.87q-.461,1.931-.837,3.811A14.159,14.159,0,0,1,64.7-2.7ZM52.533-4.956a3.231,3.231,0,0,0,.547-2.153h-.752a9.213,9.213,0,0,0-3.076,1.3,1.234,1.234,0,0,1-1.025.479v.649l.205.479.649.1Zm-2.7-4.033A1.209,1.209,0,0,0,50-9.946l-.376-1.128-.376-.1-1.094.581L47.85-9.468l.308.649.444.1Zm7.144-.581v-.479l-.82-2.153-.479-.1a15.112,15.112,0,0,0-2.871.479l-.1.376.1.376-.1.957,1.2.068Zm-7.144-4.888.444-.752,1.23-.376,3.623.752.068-.479-.649-1.3-.342-.1q-1.88.376-3.743.837a30.676,30.676,0,0,0-3.64,1.145v.752l.308.376Zm3.247-5.366.1-.376a5.126,5.126,0,0,0-1.4-1.4l-.273.273.068.649.205,1.128h.376Zm2.051-2.153.273-1.23h-.547a4.523,4.523,0,0,1-2.051.479Q54-22.354,55.13-21.978Zm21.5,13.3A9.345,9.345,0,0,1,74.2-10.459a13.875,13.875,0,0,1-1.128-3.179,1.753,1.753,0,0,1,.752-1.436l.752-.649a7.851,7.851,0,0,1,2.051,1.88H78a62.177,62.177,0,0,1,8.135-1.179,47.732,47.732,0,0,0,8.135-1.35l.273-.479.649-.273,1.2-1.128,1.4-.479L98.161-19a16.829,16.829,0,0,1,4.067,1.88,16.662,16.662,0,0,0,4.1,1.88l.171.376.649.547v.581l-.1.376a1.334,1.334,0,0,1,.376,1.2l-.376.205a2.566,2.566,0,0,1-1.094,1.3q-2.7-.547-5.059-1.213t-4.785-1.111a21.152,21.152,0,0,1-4.648-.1,29.492,29.492,0,0,1-7.383,1.675A15.809,15.809,0,0,0,76.97-8.955Zm45.8,14.253q-1.4-.376-2.7-.854A23.474,23.474,0,0,1,117.54-.359a16.484,16.484,0,0,0-2.461-4.973l-1.128-.547-.854-1.23a23.664,23.664,0,0,1,3.076.376q1.4.273,2.8.581a13.064,13.064,0,0,0,3.281-1.23l.752-2.119a7.286,7.286,0,0,1-2.734-1.333,16.294,16.294,0,0,1-1.248-3.538,13.59,13.59,0,0,0-1.35-3.538l-.479-.068-.068,1.3.068.82-.923.957-.752-.1-.649.171a6.617,6.617,0,0,1-2.529-.82l-.273-1.675.1-2.529a6.769,6.769,0,0,0-1.3-4.1l.547-.068a10.935,10.935,0,0,0,2.341.632,5.8,5.8,0,0,1,2.239.837l.547.581a32.332,32.332,0,0,0,3.691-1.179,32.333,32.333,0,0,1,3.691-1.179l.1-.444a5.981,5.981,0,0,0-1.025-3.452l-.581-.171.205-.479-.957-.376,3.452-.376a7.057,7.057,0,0,1,3.76,1.025l.068.581a4.713,4.713,0,0,0-.444,2.5h.649q2.153-.479,4.2-.974a22.582,22.582,0,0,1,4.272-.6l.684.1.342-.1q1.606.752,3.11,1.47a11.042,11.042,0,0,1,2.051,2.324L144.2-23l.444,1.367a1.077,1.077,0,0,1-1.128.308,2.586,2.586,0,0,0-1.743-.376,3.065,3.065,0,0,0-1.333,1.4l-.376.068a4.313,4.313,0,0,1-1.2,1.3h-1.4a13.321,13.321,0,0,1-1.948-1.675l-.1-.82.1-.376-.205-.752a1.119,1.119,0,0,0,1.025-.273l.205-.479-.649-.171-.479.1-.581-.205a27.153,27.153,0,0,0-3.076.581l-.376-.1a13.138,13.138,0,0,0-4.375,1.3H125.88l-.923.1q-1.777.547-3.555,1.06a19.432,19.432,0,0,0-3.452,1.367l2.632,1.025q2.324-.957,4.7-1.931a25.28,25.28,0,0,1,4.9-1.453,28.78,28.78,0,0,1,3.828,1.23,9.9,9.9,0,0,1,3.35,2.222l.479,1.4a12.279,12.279,0,0,0-3.076,1.572l-.649.649-.308.752a7.4,7.4,0,0,1-2.051,2.153,4.158,4.158,0,0,1-2.051.752l-.444-.205-.854.1a1.128,1.128,0,0,0-.854-.205l-1.025.479a3.7,3.7,0,0,0-.273,2.153,2.243,2.243,0,0,0,1.3.171,22.517,22.517,0,0,1,2.529-.41q1.3-.137,2.632-.239l1.025.1,1.094-.273a22.641,22.641,0,0,1,3.76.837,6.275,6.275,0,0,1,3.076,2.239l1.2,1.367.1.479.171.376q-.273.649-.547,1.2a19.955,19.955,0,0,1-2.461,1.128,10.181,10.181,0,0,0-2.393,1.3,14.83,14.83,0,0,1-2.051,2.7l-.376.273-.171.479a2.263,2.263,0,0,1-1.777.547l-.854-.273-.376.1-.547-.1-.376-.376a2.363,2.363,0,0,0-1.948-.444,11.553,11.553,0,0,0-2.546.273q-1.213.273-2.307.547l-.649.273a3.872,3.872,0,0,0-.581,1.675Zm.854-4.375h.479q1.675-.273,3.3-.615a20.269,20.269,0,0,1,3.4-.41l1.3.068a23.293,23.293,0,0,0,1.23-3.435,34.6,34.6,0,0,1,1.128-3.435,3.574,3.574,0,0,0-1.4-.273q-3.076.376-6.067.923A24.137,24.137,0,0,0,120.958-4.2a28.174,28.174,0,0,0,.837,2.871q.461,1.3,1.008,2.6Zm1.3-13.877h.649l2.632-.649q.547-1.23,1.162-2.393a5.975,5.975,0,0,0,.684-2.529l-.444-.205q-1.4.376-2.854.615a6.491,6.491,0,0,0-2.649,1.06,1.434,1.434,0,0,0-.479,1.3l.171.649q.376,1.3.581,2.324Zm64.2,19.009a2.864,2.864,0,0,0-1.582-.483l-.483.132-1.187-.747-1.8-2.021a10.845,10.845,0,0,0-2.988-1.45L181-.176l-.4-1.45.132-.747-.483-1.406.615.088a1.689,1.689,0,0,1,1.45,1.1l.571.7a2.326,2.326,0,0,1,2.021.483l.747.264a1.417,1.417,0,0,0,.571-1.1q-.088-8.218.132-16.392l-.835-.132a22.091,22.091,0,0,1-1.934,3.032,13.987,13.987,0,0,1-1.055,2.417q-.7,2.021-1.428,3.889a24.842,24.842,0,0,1-1.824,3.713l-.7.22-.132.483-.923.483a5.589,5.589,0,0,1-3.6,2.9,12.621,12.621,0,0,1-3.34,2.153l-1.1.4-1.8-.967L166.5-1.626a37.546,37.546,0,0,1,2.461-6.394q1.494-3.01,3.032-6.042l.615-.615.22-.7-.7-.967-.7-.22a16.279,16.279,0,0,1-3.735-2.2,4.039,4.039,0,0,1-1.055-3.12l.571-.132a32.008,32.008,0,0,1,4.307,1.934l7.69-2.549-1.45-2.153q-.835-1.934-1.67-3.735a11.137,11.137,0,0,0-2.5-3.384l-1.23-.615a1.885,1.885,0,0,1,1.582-.835,12.2,12.2,0,0,1,5.757,1.1,17.181,17.181,0,0,0,2.021,1.318l1.45,1.45a19.235,19.235,0,0,1,1.318,3.384l-.747,1.538a5.144,5.144,0,0,1,2.417.879,3.67,3.67,0,0,0,.352-1.582l-.132-5.054.132-1.23a7.255,7.255,0,0,0-1.187-4l-1.8-1.406a9.561,9.561,0,0,1,4.526-.879,10.331,10.331,0,0,1,5.142,2.417l-.22.483-.967,2.549.132.835a8.539,8.539,0,0,0-.352,1.8l.088.615-.22.967a32.287,32.287,0,0,1,2.769,4.087,14.666,14.666,0,0,0,4.79-2.769l1.406-1.582a3.791,3.791,0,0,0,.615-2.153.884.884,0,0,1-.967-.835l.483-.352a5.045,5.045,0,0,0,2.637-.264,12.47,12.47,0,0,0,3.054,1.1,4.937,4.937,0,0,1,2.791,1.8,2.679,2.679,0,0,1,1.23,2.417l-.4.7q-2.637.967-5.229,1.934l-.4.483L203.1-22.5a7.357,7.357,0,0,0-3.823,2.285l-.7.483-1.1.615q1.23,2.285,2.483,4.285a32.058,32.058,0,0,0,2.791,3.8,9.381,9.381,0,0,1,1.67,1.538,27.787,27.787,0,0,1,4.57,2.922,37.579,37.579,0,0,0,4.438,3.01l.352.615,1.318.835V-.791a12.045,12.045,0,0,1-1.23.615l-.22.615-.483.483a13.741,13.741,0,0,0-3.691.967,13.879,13.879,0,0,0-6.592-1.1l-.7-.264-.264.4-.571-.879-3.252-3.252q-.7-1.8-1.252-3.669a10.776,10.776,0,0,0-1.736-3.45l.7.132v.615l.615.352.7.615a15.215,15.215,0,0,0-1.187-3.032q-.7-1.318-1.45-2.637l-.483-.132-.088.7a4.254,4.254,0,0,1,.923,3.032q-.923-1.67-1.758-3.362a29.225,29.225,0,0,1-1.45-3.494l-.615,1.406a3.89,3.89,0,0,1,.352,2.2A31.764,31.764,0,0,1,191.5-7.91q.264,1.8.483,3.647a31.489,31.489,0,0,0,0,4.7l.264.571-.132.483.22,1.45-.571.835-.835.483-.967,1.362ZM171.99-7.163a30.872,30.872,0,0,0,3.911-3.582,17.473,17.473,0,0,0,2.944-4.285q.571-1.8,1.055-3.735h-1.055a43.839,43.839,0,0,1-4.219,1.714,4.072,4.072,0,0,1-.571,1.406l-.835.264a22.766,22.766,0,0,0-1.033,3.01,17.973,17.973,0,0,0-.549,3.274l.132.571-.264,1.45ZM197.962-9.1l-.352-1.318-.615.439.483.747ZM251.749,4.966l-.967-.571q-.352-19.687-1.318-39.375a2.82,2.82,0,0,0-.835-1.626,13.358,13.358,0,0,1-2.988-1.582v-.483l1.45-.571.439.132,2.988-.264a15.762,15.762,0,0,1,5.625,1.758l1.538,1.714v.923l-.571,1.055-1.45,1.011a11.03,11.03,0,0,0-.571,2.988,45.442,45.442,0,0,1-.264,6.9,20.273,20.273,0,0,1,.352,3.8,29.73,29.73,0,0,0,.264,3.933v10.02l-.264,1.362.132,1.055q-.22,1.714-.527,3.494a14.973,14.973,0,0,1-1.011,3.406l-.835.352Zm-34.5-3.34L215.318-.352a36.6,36.6,0,0,0-2.307-3.911,7.191,7.191,0,0,1-1.252-4.131,3.825,3.825,0,0,0,.439-2.988q.615-1.143,1.1-2.2l.352-.352-.352-.439.483.22a21.712,21.712,0,0,1,2.021-4.043v.7a32.453,32.453,0,0,0-1.121,3.867q-.417,1.89-.813,3.823l.4,2.109a10.762,10.762,0,0,1,1.67.791,16.691,16.691,0,0,0,3.691-3.472q.483-1.494.835-2.988a21.042,21.042,0,0,0,.483-3.076q-.088-4.7,0-9.36a9.672,9.672,0,0,0-.791-4.373,12.762,12.762,0,0,0-2.549-3.669q2.241.352,4.219.813a11.8,11.8,0,0,1,3.647,1.516,2.443,2.443,0,0,1,.483,2.065l-.264,1.23.132.615q-.22,3.428-.352,6.9.22,2.065.352,4.131,0,1.318-.132,2.637a50.614,50.614,0,0,1-1.121,6.921,13.713,13.713,0,0,1-3.054,5.867q-1.187,1.23-2.241,2.549A4.2,4.2,0,0,0,217.252,1.626Zm19.336-3.56A7.84,7.84,0,0,1,233.6-3.56a3.608,3.608,0,0,1-.835-2.285q.439-2.109.681-4.285t.505-4.373a46.236,46.236,0,0,1,0-11.382,10.638,10.638,0,0,0-1.318-3.472l-1.538-1.011-.132-.7,3.208-.22a28.99,28.99,0,0,1,5.361,1.846l.264,1.362a10.971,10.971,0,0,0-.7,3.34l.088,1.143q-.352,1.846-.571,3.691A18.59,18.59,0,0,1,238.7-14.5a12.627,12.627,0,0,1,.264,3.691l-.132.439q.044,2.285.132,4.614a7.861,7.861,0,0,1-1.67,3.691Zm56.82,9.1a4.876,4.876,0,0,1-1.8-.615l-.4-.352a15.669,15.669,0,0,1-.923-4.878,97.388,97.388,0,0,1,.352-11.689l-.615-.264a28.283,28.283,0,0,0-2.153,2.021l-1.1-.088-.483.22-.352-.483a3.237,3.237,0,0,1-1.67-.967l-.615-.352a1.856,1.856,0,0,1-1.934.747l-.615-.132L280.18-9.8l-.747-.7-.483-.132a11.7,11.7,0,0,0-2.988-2.021q.4,4.746.483,9.536a18.715,18.715,0,0,0,.7,4.438,6.284,6.284,0,0,1-1.45,4.043l-1.8.967a32.761,32.761,0,0,1-3.12-1.45l-.7-.7-1.23-2.285-.483-.22.264-1.1L268.49-.615l.7.132a7.256,7.256,0,0,0,1.23-2.637L270.16-3.6l.352-1.406.132-1.1-.571-.352.439-2.241a30.367,30.367,0,0,0-2.5,2.241q-1.187,1.187-2.285,2.417h-.7a4.252,4.252,0,0,1-2.769-.967l-1.362-1.318-.923-.352L259.7-8.13l1.187-.483.132-.483a28.778,28.778,0,0,0,2.944-4.7q1.143-2.329,2.241-4.7l.352-.352a9.678,9.678,0,0,1,2.878-1.45q1.56-.483,3.142-.967a22.075,22.075,0,0,0,1.692-2.681,7.468,7.468,0,0,0,.857-2.9,17.4,17.4,0,0,0-5.911,1.67q-2.659,1.318-5.164,2.725l-.879-.352A6.792,6.792,0,0,0,260.4-24.7a6.106,6.106,0,0,1-1.055-3.12l.835-.22a10.576,10.576,0,0,0,3.472,1.055q1.714-.7,3.516-1.3t3.6-1.077l.132-.747q-.4-1.538-.813-3.142a6.031,6.031,0,0,0-1.6-2.791l-1.8-1.23,3.735-.7a16.28,16.28,0,0,1,5.054,1.538l.352.835-.264,2.417.4,1.187.483.132,2.856-.264a18.709,18.709,0,0,1,5.054,2.988,4.029,4.029,0,0,1,.967,1.8l.615-.132.7.132q1.582-.615,3.252-1.1l.132-1.055a27.012,27.012,0,0,1-.791-3.208,9.743,9.743,0,0,0-1.143-3.12,13.129,13.129,0,0,0-2.285-1.45,21.449,21.449,0,0,1,5.186-1.187q1.45.615,2.9,1.143a11.067,11.067,0,0,1,2.769,1.494l.088.615-.483.835a13.269,13.269,0,0,0-1.055,4.043l.483.22q2.021-.7,4.087-1.318A10.844,10.844,0,0,1,304-29.839l.483.835a9.65,9.65,0,0,0,1.8.967A3.181,3.181,0,0,1,307.6-25.8l-2.417,1.934q-.483,2.153-.967,4.351t-1.1,4.351l.132.483a5.7,5.7,0,0,1-1.67,3.076l-1.8.483-.967-.22-.483.22-.352-.571a2.428,2.428,0,0,0-2.2-.483,8.466,8.466,0,0,0-.571,3.208,25.248,25.248,0,0,1,.22,8.262,4.586,4.586,0,0,1,.264,2.021,15.226,15.226,0,0,1-1.23,5.493Zm-27.2-20.654,3.6-3.6a19.766,19.766,0,0,1,1.45-2.5l-.352-.439h-.483a11.234,11.234,0,0,0-3.384,2.109,17.874,17.874,0,0,0-1.582,4.438Zm24.3-.264a2.383,2.383,0,0,0,.352-1.274l-.352-1.67.132-.747-.264-.571h-.483l-.967.7-.835.352.132.835-.132.615.483,2.021h1.318Zm-7.69-.439a24.954,24.954,0,0,0-.483-6.108,16.023,16.023,0,0,0-.615-4.658,19,19,0,0,0-2.461,2.988q-1.011,1.538-1.978,3.12-.483.088-.352.7l1.318.967a7.559,7.559,0,0,1,2.988,1.67Zm14.063-.483v-.483a30.252,30.252,0,0,0,.483-3.823l-.132-.483h-.967l-.923.483a29.7,29.7,0,0,1,0,3.955l.352.439Zm-7.822-6.46h.835l.615-.483v-.967a4.479,4.479,0,0,1-.483-2.109,4.405,4.405,0,0,0-2.769,1.055l-.132,1.187.264,1.67.835.132Zm7.69-1.318.879-.571.088-2.5-.22-.483-2.153.352-.132,1.8.22.7-.22.571A1.793,1.793,0,0,0,296.747-22.456ZM320.168,6.328l-2.021-2.021A8.288,8.288,0,0,1,316.829.571a7.394,7.394,0,0,0,1.362-3.713q.176-2.043.176-4.2L317.4-6.152,316.345-4.79a1.046,1.046,0,0,1-.615.923,14.045,14.045,0,0,1-2.285,2.285l-.483.264L311.555.088h-.747a5.309,5.309,0,0,1-1.89-1.89l-.747-1.23L306.5-4.438a11.536,11.536,0,0,0,1.67-5.537A5.956,5.956,0,0,1,310.1-7.69l.483.132a43.53,43.53,0,0,0,3.757-3.779,28.725,28.725,0,0,0,3.054-4.175q1.23-2.153,2.549-4.2a22.145,22.145,0,0,0,2.153-4.285l-.835-.264a17.877,17.877,0,0,1-3.538,1.8q-1.868.7-3.669,1.582l-.967,1.187h-.615a10.23,10.23,0,0,0-2.725-1.45L307.2-23.511a5.159,5.159,0,0,1-.571-2.417l.483-.132a7.686,7.686,0,0,0,2.856,1.318q1.934-.483,3.779-1.143t3.647-1.494l.132-.483q-.571-1.89-1.055-3.823a8.976,8.976,0,0,0-1.714-3.472l-1.406-.747-.132-.571a7.479,7.479,0,0,1,2.988-.4q1.67.264,3.3.615a8.9,8.9,0,0,1,3.076,1.318,11.155,11.155,0,0,1,.7,4.57l.352.615.615-.879.835-.088a40.7,40.7,0,0,1,5.273,2.725l.4,1.1-.879,1.318a2.333,2.333,0,0,0-1.8.835,12.542,12.542,0,0,1-2.725,3.955q-.967,2.285-1.8,4.7,1.406.571,2.791,1.3t2.7,1.56a4.877,4.877,0,0,1,1.1,2.2,3.54,3.54,0,0,1,.132,1.406l-.483,1.23a4.41,4.41,0,0,1-2.285.571,5.937,5.937,0,0,1-2.549-2.021l-2.153-2.549a21.874,21.874,0,0,0,.615,8.042l2.637,1.45a53.213,53.213,0,0,1,6.064-1.318q3.076-.483,6.2-.967V-7.559a33.025,33.025,0,0,0,.22-5.669l-.615-2.5-.571-.132q-2.9.352-5.669.747l-.835-.483q-.835-1.318-1.8-2.7a5.217,5.217,0,0,1-.967-3.054l.967.571.4.615.439.352a2.743,2.743,0,0,0,1.8.615,23.977,23.977,0,0,0,3.076-.9q1.494-.549,2.944-1.165l.22-.923-.352-.747.132-1.187q-.352-2.5-.769-5.032a21.151,21.151,0,0,0-1.384-4.812l-2.285-1.1-.483-.835.7-.483.615.132.835-.22.483.088.967-.088a24.281,24.281,0,0,1,3.23,1.187q1.56.7,3.23,1.318a2.452,2.452,0,0,1,.615,1.67,5.007,5.007,0,0,1-.615,1.934l.132.967a2.3,2.3,0,0,0-.352,1.67,12.053,12.053,0,0,0,.22,4.219,18.057,18.057,0,0,1,4.988,1.121q2.351.9,4.636,1.868l.352.967v.7l-1.187.615a4.528,4.528,0,0,1-1.934.571,18.168,18.168,0,0,0-6.021.483,20.475,20.475,0,0,0-.7,4.219l.132,1.8-.264.967a16.43,16.43,0,0,1,.264,4.175l.571.132a5.65,5.65,0,0,1,2.417-.7,49.762,49.762,0,0,1,4.68,2.065q2.263,1.143,4.548,2.373l.132,2.637a4.137,4.137,0,0,1-2.988,1.406q-3.12-1.055-6.306-1.956a24.849,24.849,0,0,0-6.79-.9,24.531,24.531,0,0,0-2.988.615l-1.1-.132a25.581,25.581,0,0,0-3.23.9,11.862,11.862,0,0,0-2.878,1.472,7.912,7.912,0,0,1-3.12-1.67l-.352-.483-.747-.352a5.716,5.716,0,0,1-1.318-2.153l-.7,3.252.264,1.055a21.234,21.234,0,0,1-1.23,4.351A1.791,1.791,0,0,1,320.168,6.328Z" transform="translate(0 39.375)" fill="#333"/>
</svg>
